<svg width="130" height="56" viewBox="15 13 130 56" fill="none" xmlns="http://www.w3.org/2000/svg">
<path d="M20 20.7059C20 18.1069 21.7909 16 24 16H85C87.2091 16 89 18.1069 89 20.7059V51.2941C89 53.8931 87.2091 56 85 56H24C21.7909 56 20 53.8931 20 51.2941V20.7059Z" fill="#FFB770"/>
<path d="M76.3836 65.2292L71.7712 56.4657C71.4208 55.7998 71.9036 55 72.6561 55H81.4196C82.1537 55 82.6376 55.7646 82.3233 56.4281L78.1722 65.1915C77.8194 65.9364 76.7675 65.9586 76.3836 65.2292Z" fill="#FFB770"/>
<rect x="26.5" y="25" width="10" height="9" rx="2" fill="#290657" fill-opacity="0.3"/>
<rect x="42.5" y="27" width="40" height="5" rx="2.5" fill="#290657" fill-opacity="0.3"/>
<rect x="42.5" y="41" width="40" height="5" rx="2.5" fill="#290657" fill-opacity="0.3"/>
<rect x="26.5" y="39" width="10" height="9" rx="2" fill="#290657" fill-opacity="0.3"/>
<path d="M99.328 32C98.6693 32 98.1927 31.9047 97.898 31.714C97.6033 31.506 97.4213 31.3067 97.352 31.116C97.2827 30.9253 97.248 30.83 97.248 30.83C97.248 30.83 97.2393 30.622 97.222 30.206C97.222 29.7727 97.2133 29.2093 97.196 28.516C97.196 27.8227 97.1873 27.06 97.17 26.228C97.1527 25.396 97.1353 24.564 97.118 23.732C97.118 22.9 97.1093 22.1373 97.092 21.444C97.0747 20.7507 97.0573 20.196 97.04 19.78C97.04 19.3467 97.04 19.13 97.04 19.13C97.0227 19.13 96.9273 19.0433 96.754 18.87C96.598 18.6967 96.5113 18.5147 96.494 18.324C96.494 18.1853 96.6587 17.986 96.988 17.726C97.3173 17.466 97.872 17.2493 98.652 17.076C99.4493 16.8853 100.541 16.8507 101.928 16.972C103.176 17.076 104.155 17.284 104.866 17.596C105.594 17.8907 106.123 18.2113 106.452 18.558C106.781 18.8873 106.989 19.182 107.076 19.442C107.163 19.6847 107.206 19.806 107.206 19.806C107.206 19.806 107.215 19.832 107.232 19.884C107.267 19.936 107.293 20.1007 107.31 20.378C107.345 20.638 107.371 21.0713 107.388 21.678C107.405 22.2847 107.405 23.134 107.388 24.226C107.371 25.11 107.163 25.812 106.764 26.332C106.383 26.852 105.906 27.242 105.334 27.502C104.762 27.7447 104.19 27.9093 103.618 27.996C103.063 28.0653 102.595 28.1 102.214 28.1C101.833 28.0827 101.642 28.074 101.642 28.074C101.642 28.074 101.642 28.2647 101.642 28.646C101.659 29.01 101.659 29.6253 101.642 30.492C101.642 30.9253 101.521 31.2547 101.278 31.48C101.053 31.688 100.784 31.8267 100.472 31.896C100.177 31.9653 99.9087 32 99.666 32C99.4407 32 99.328 32 99.328 32ZM101.382 19.39L101.616 25.838C101.616 25.838 101.729 25.8293 101.954 25.812C102.179 25.7773 102.439 25.6907 102.734 25.552C103.029 25.4133 103.28 25.1793 103.488 24.85C103.713 24.5033 103.809 24.018 103.774 23.394C103.739 22.562 103.705 21.938 103.67 21.522C103.635 21.106 103.609 20.8373 103.592 20.716C103.592 20.5773 103.592 20.508 103.592 20.508C103.592 20.508 103.575 20.4387 103.54 20.3C103.523 20.144 103.453 19.9793 103.332 19.806C103.211 19.6327 102.994 19.5027 102.682 19.416C102.387 19.312 101.954 19.3033 101.382 19.39ZM114.848 21.444C115.49 21.392 115.984 21.4613 116.33 21.652C116.677 21.8427 116.885 21.9553 116.954 21.99C117.128 22.0767 117.284 22.172 117.422 22.276C117.578 22.38 117.656 22.432 117.656 22.432C117.656 22.432 117.786 22.4753 118.046 22.562C118.306 22.6487 118.61 22.8567 118.956 23.186C119.303 23.498 119.624 23.992 119.918 24.668C120.213 25.344 120.386 26.2627 120.438 27.424C120.473 28.204 120.352 28.8627 120.074 29.4C119.797 29.92 119.424 30.3533 118.956 30.7C118.506 31.0293 118.012 31.2893 117.474 31.48C116.954 31.6533 116.452 31.7747 115.966 31.844C115.498 31.9133 115.108 31.9567 114.796 31.974C114.502 31.9913 114.354 32 114.354 32C114.354 32 114.181 32 113.834 32C113.505 32 113.089 31.948 112.586 31.844C112.084 31.7227 111.581 31.4973 111.078 31.168C110.593 30.8213 110.186 30.3187 109.856 29.66C109.544 29.0013 109.406 28.126 109.44 27.034C109.475 25.942 109.674 25.0493 110.038 24.356C110.42 23.6453 110.87 23.0907 111.39 22.692C111.928 22.2933 112.456 22.0073 112.976 21.834C113.514 21.6607 113.956 21.5567 114.302 21.522C114.666 21.47 114.848 21.444 114.848 21.444ZM114.952 23.992C114.952 23.992 114.84 24.1307 114.614 24.408C114.406 24.6853 114.19 25.0753 113.964 25.578C113.756 26.0807 113.652 26.67 113.652 27.346C113.652 28.0047 113.73 28.5247 113.886 28.906C114.042 29.2873 114.207 29.5647 114.38 29.738C114.571 29.894 114.718 29.972 114.822 29.972C114.926 29.972 115.091 29.9287 115.316 29.842C115.559 29.738 115.776 29.5127 115.966 29.166C116.157 28.8193 116.244 28.2733 116.226 27.528C116.209 26.904 116.14 26.4013 116.018 26.02C115.914 25.6387 115.767 25.3007 115.576 25.006C115.403 24.694 115.195 24.356 114.952 23.992ZM124.465 16.348C124.465 16.348 124.578 16.3567 124.803 16.374C125.028 16.374 125.288 16.4173 125.583 16.504C125.878 16.5733 126.138 16.7033 126.363 16.894C126.588 17.0847 126.701 17.3533 126.701 17.7C126.701 17.9253 126.71 18.3847 126.727 19.078C126.744 19.7713 126.762 20.5947 126.779 21.548C126.796 22.484 126.814 23.4547 126.831 24.46C126.866 25.448 126.892 26.3753 126.909 27.242C126.926 28.1087 126.935 28.8107 126.935 29.348C126.952 29.8853 126.961 30.154 126.961 30.154C126.961 30.154 126.961 30.2493 126.961 30.44C126.961 30.6133 126.909 30.83 126.805 31.09C126.701 31.3327 126.502 31.5493 126.207 31.74C125.912 31.9133 125.479 32 124.907 32C124.144 32 123.59 31.9047 123.243 31.714C122.896 31.506 122.68 31.2807 122.593 31.038C122.524 30.778 122.498 30.5787 122.515 30.44C122.532 30.3707 122.541 30.0673 122.541 29.53C122.541 28.9927 122.532 28.3167 122.515 27.502C122.515 26.6873 122.506 25.812 122.489 24.876C122.472 23.94 122.454 23.0213 122.437 22.12C122.42 21.2013 122.394 20.3867 122.359 19.676C122.342 18.948 122.324 18.4107 122.307 18.064C122.272 17.5787 122.385 17.2147 122.645 16.972C122.922 16.7293 123.234 16.5733 123.581 16.504C123.945 16.4173 124.24 16.3653 124.465 16.348ZM131.313 16.348C131.313 16.348 131.426 16.3567 131.651 16.374C131.877 16.374 132.137 16.4173 132.431 16.504C132.726 16.5733 132.986 16.7033 133.211 16.894C133.437 17.0847 133.549 17.3533 133.549 17.7C133.549 17.9253 133.558 18.3847 133.575 19.078C133.593 19.7713 133.61 20.5947 133.627 21.548C133.645 22.484 133.662 23.4547 133.679 24.46C133.714 25.448 133.74 26.3753 133.757 27.242C133.775 28.1087 133.783 28.8107 133.783 29.348C133.801 29.8853 133.809 30.154 133.809 30.154C133.809 30.154 133.809 30.2493 133.809 30.44C133.809 30.6133 133.757 30.83 133.653 31.09C133.549 31.3327 133.35 31.5493 133.055 31.74C132.761 31.9133 132.327 32 131.755 32C130.993 32 130.438 31.9047 130.091 31.714C129.745 31.506 129.528 31.2807 129.441 31.038C129.372 30.778 129.346 30.5787 129.363 30.44C129.381 30.3707 129.389 30.0673 129.389 29.53C129.389 28.9927 129.381 28.3167 129.363 27.502C129.363 26.6873 129.355 25.812 129.337 24.876C129.32 23.94 129.303 23.0213 129.285 22.12C129.268 21.2013 129.242 20.3867 129.207 19.676C129.19 18.948 129.173 18.4107 129.155 18.064C129.121 17.5787 129.233 17.2147 129.493 16.972C129.771 16.7293 130.083 16.5733 130.429 16.504C130.793 16.4173 131.088 16.3653 131.313 16.348ZM99.224 33.96C99.2067 33.96 99.2327 33.8647 99.302 33.674C99.3887 33.466 99.5793 33.2667 99.874 33.076C100.169 32.8853 100.654 32.7813 101.33 32.764C101.937 32.7467 102.396 32.8247 102.708 32.998C103.02 33.154 103.228 33.31 103.332 33.466C103.453 33.622 103.514 33.7 103.514 33.7C103.514 33.7 103.609 33.9253 103.8 34.376C103.991 34.8267 104.251 35.4247 104.58 36.17C104.909 36.898 105.273 37.7127 105.672 38.614C106.071 39.5153 106.469 40.434 106.868 41.37C107.284 42.2887 107.665 43.1553 108.012 43.97C108.376 44.7673 108.679 45.4433 108.922 45.998C109.165 46.5353 109.321 46.8733 109.39 47.012C109.546 47.3413 109.633 47.5753 109.65 47.714C109.667 47.8527 109.659 47.948 109.624 48C109.607 48.0347 109.598 48.0607 109.598 48.078C109.477 48.3207 109.234 48.5287 108.87 48.702C108.523 48.8927 108.099 48.9967 107.596 49.014C106.903 49.0313 106.4 48.9533 106.088 48.78C105.776 48.624 105.568 48.4593 105.464 48.286C105.377 48.13 105.343 48.0607 105.36 48.078C105.36 48.078 105.265 47.8787 105.074 47.48C104.901 47.0813 104.693 46.6047 104.45 46.05C104.207 45.478 103.982 44.958 103.774 44.49C103.774 44.49 103.653 44.49 103.41 44.49C103.185 44.49 102.916 44.49 102.604 44.49C102.292 44.49 102.015 44.49 101.772 44.49C101.547 44.49 101.434 44.49 101.434 44.49C101.365 44.7327 101.295 45.036 101.226 45.4C101.157 45.7467 101.096 46.0587 101.044 46.336C100.992 46.6133 100.966 46.752 100.966 46.752C100.966 46.752 100.923 46.856 100.836 47.064C100.767 47.272 100.567 47.48 100.238 47.688C99.9087 47.896 99.3627 48 98.6 48C98.028 48 97.5947 47.9393 97.3 47.818C97.0227 47.6793 96.832 47.5233 96.728 47.35C96.6413 47.1767 96.598 47.0293 96.598 46.908C96.598 46.7693 96.598 46.7 96.598 46.7C96.6327 46.5267 96.702 46.1713 96.806 45.634C96.9273 45.0793 97.066 44.4207 97.222 43.658C97.3953 42.878 97.5687 42.0547 97.742 41.188C97.9327 40.3213 98.1147 39.4633 98.288 38.614C98.4613 37.7647 98.6173 36.9933 98.756 36.3C98.8947 35.5893 99.0073 35.026 99.094 34.61C99.1807 34.1767 99.224 33.96 99.224 33.96ZM101.954 38.068C101.937 38.1373 101.919 38.276 101.902 38.484L101.798 39.212C101.763 39.6107 101.72 40.0353 101.668 40.486C101.616 40.9367 101.564 41.3613 101.512 41.76C101.477 41.968 101.451 42.098 101.434 42.15H101.772C101.98 42.15 102.205 42.1413 102.448 42.124C102.691 42.1067 102.907 42.098 103.098 42.098C103.029 41.9593 102.968 41.786 102.916 41.578C102.881 41.3527 102.838 41.1447 102.786 40.954C102.682 40.5553 102.561 40.1393 102.422 39.706C102.301 39.2727 102.188 38.8653 102.084 38.484C102.032 38.276 101.989 38.1373 101.954 38.068ZM112.435 51.718L111.577 41.162C111.577 41.162 111.534 41.0927 111.447 40.954C111.378 40.8153 111.308 40.642 111.239 40.434C111.17 40.2087 111.152 39.992 111.187 39.784C111.222 39.576 111.352 39.4027 111.577 39.264C111.768 39.16 112.114 38.9607 112.617 38.666C113.137 38.354 113.77 38.0507 114.515 37.756C115.26 37.4613 116.058 37.2533 116.907 37.132C117.774 37.0107 118.64 37.0627 119.507 37.288C120.391 37.496 121.223 37.9727 122.003 38.718C122.766 39.446 123.242 40.252 123.433 41.136C123.624 42.02 123.606 42.8867 123.381 43.736C123.173 44.5853 122.818 45.3307 122.315 45.972C121.83 46.6133 121.275 47.064 120.651 47.324C119.802 47.6707 119.074 47.8873 118.467 47.974C117.86 48.0433 117.392 48.0607 117.063 48.026C116.734 48.0087 116.569 48 116.569 48L116.829 51.926C116.829 51.926 116.829 52.0127 116.829 52.186C116.829 52.3593 116.777 52.5587 116.673 52.784C116.586 53.0093 116.396 53.2 116.101 53.356C115.806 53.5293 115.373 53.616 114.801 53.616C114.038 53.5987 113.484 53.4773 113.137 53.252C112.808 53.0267 112.608 52.7667 112.539 52.472C112.47 52.1773 112.435 51.926 112.435 51.718ZM115.763 39.992L116.335 45.634C116.335 45.634 116.482 45.634 116.777 45.634C117.072 45.634 117.401 45.582 117.765 45.478C118.146 45.374 118.476 45.1747 118.753 44.88C119.03 44.5853 119.152 44.1433 119.117 43.554C119.082 42.774 118.996 42.0807 118.857 41.474C118.718 40.85 118.51 40.3733 118.233 40.044C117.956 39.7147 117.574 39.5933 117.089 39.68C116.604 39.7667 116.266 39.836 116.075 39.888C115.902 39.9227 115.806 39.9487 115.789 39.966C115.772 39.9833 115.763 39.992 115.763 39.992ZM126.52 51.718L125.662 41.162C125.662 41.162 125.618 41.0927 125.532 40.954C125.462 40.8153 125.393 40.642 125.324 40.434C125.254 40.2087 125.237 39.992 125.272 39.784C125.306 39.576 125.436 39.4027 125.662 39.264C125.852 39.16 126.199 38.9607 126.702 38.666C127.222 38.354 127.854 38.0507 128.6 37.756C129.345 37.4613 130.142 37.2533 130.992 37.132C131.858 37.0107 132.725 37.0627 133.592 37.288C134.476 37.496 135.308 37.9727 136.088 38.718C136.85 39.446 137.327 40.252 137.518 41.136C137.708 42.02 137.691 42.8867 137.466 43.736C137.258 44.5853 136.902 45.3307 136.4 45.972C135.914 46.6133 135.36 47.064 134.736 47.324C133.886 47.6707 133.158 47.8873 132.552 47.974C131.945 48.0433 131.477 48.0607 131.148 48.026C130.818 48.0087 130.654 48 130.654 48L130.914 51.926C130.914 51.926 130.914 52.0127 130.914 52.186C130.914 52.3593 130.862 52.5587 130.758 52.784C130.671 53.0093 130.48 53.2 130.186 53.356C129.891 53.5293 129.458 53.616 128.886 53.616C128.123 53.5987 127.568 53.4773 127.222 53.252C126.892 53.0267 126.693 52.7667 126.624 52.472C126.554 52.1773 126.52 51.926 126.52 51.718ZM129.848 39.992L130.42 45.634C130.42 45.634 130.567 45.634 130.862 45.634C131.156 45.634 131.486 45.582 131.85 45.478C132.231 45.374 132.56 45.1747 132.838 44.88C133.115 44.5853 133.236 44.1433 133.202 43.554C133.167 42.774 133.08 42.0807 132.942 41.474C132.803 40.85 132.595 40.3733 132.318 40.044C132.04 39.7147 131.659 39.5933 131.174 39.68C130.688 39.7667 130.35 39.836 130.16 39.888C129.986 39.9227 129.891 39.9487 129.874 39.966C129.856 39.9833 129.848 39.992 129.848 39.992Z" fill="#FFB770"/>
</svg>
