<svg width="80" height="60" viewBox="15 13 80 56" fill="none" xmlns="http://www.w3.org/2000/svg">
<path d="M20 20.7059C20 18.1069 21.7909 16 24 16H85C87.2091 16 89 18.1069 89 20.7059V51.2941C89 53.8931 87.2091 56 85 56H24C21.7909 56 20 53.8931 20 51.2941V20.7059Z" fill="#FFB770"/>
<path d="M76.3836 65.2292L71.7712 56.4657C71.4208 55.7998 71.9036 55 72.6561 55H81.4196C82.1537 55 82.6376 55.7646 82.3233 56.4281L78.1722 65.1915C77.8194 65.9364 76.7675 65.9586 76.3836 65.2292Z" fill="#FFB770"/>
<rect x="26.5" y="25" width="10" height="9" rx="2" fill="#290657" fill-opacity="0.3"/>
<rect x="42.5" y="27" width="40" height="5" rx="2.5" fill="#290657" fill-opacity="0.3"/>
<rect x="42.5" y="41" width="40" height="5" rx="2.5" fill="#290657" fill-opacity="0.3"/>
<rect x="26.5" y="39" width="10" height="9" rx="2" fill="#290657" fill-opacity="0.3"/>
</svg>
