<svg width="98" height="111" viewBox="0 0 98 111" fill="none" xmlns="http://www.w3.org/2000/svg">
<g filter="url(#filter0_d_191_1624)">
<g filter="url(#filter1_d_191_1624)">
<path d="M45.91 86.9098C67.8246 86.9098 85.59 69.1445 85.59 47.2298C85.59 25.3151 67.8246 7.5498 45.91 7.5498C23.9953 7.5498 6.22998 25.3151 6.22998 47.2298C6.22998 69.1445 23.9953 86.9098 45.91 86.9098Z" fill="#FFCE81"/>
</g>
<path d="M46.931 62.5783C46.931 62.5783 46.5843 62.5745 45.891 62.567C45.2511 62.5601 44.5056 62.4453 43.6546 62.2228C42.8036 62.0002 42.0353 61.5386 41.3495 60.8378C40.717 60.1375 40.4083 59.0941 40.4233 57.7075C40.4435 55.841 40.8579 54.5121 41.6665 53.7208C42.5284 52.93 43.4139 52.4329 44.3228 52.2294C45.285 52.0265 45.9264 51.9001 46.247 51.8502C46.5142 51.7998 46.8878 51.7772 47.3678 51.7823C47.8478 51.7875 48.3301 51.5794 48.8146 51.158C49.2998 50.6832 49.6829 49.7806 49.964 48.4502C50.2984 47.1205 50.427 45.0951 50.3498 42.3741C50.319 40.2936 50.0957 38.7444 49.68 37.7265C49.3183 36.6559 48.8994 35.9313 48.4235 35.5528C47.9476 35.1743 47.5229 34.983 47.1496 34.979C46.8302 34.9222 46.6705 34.8938 46.6705 34.8938C46.6711 34.8405 46.4036 34.9176 45.868 35.1251C45.3329 35.2794 44.795 35.7002 44.2542 36.3878C43.7667 37.0759 43.5674 38.2471 43.6562 39.9015C43.7495 41.1292 43.8968 42.3042 44.098 43.4265C44.2998 44.4954 44.3694 45.4562 44.3069 46.3089C44.2449 47.1083 43.838 47.7439 43.0862 48.2158C42.3882 48.6349 41.1063 48.8078 39.2403 48.7342C37.4277 48.6613 36.0179 48.326 35.011 47.7284C34.0046 47.0775 33.293 46.2964 32.8762 45.3852C32.5133 44.4212 32.3106 43.4323 32.2682 42.4184C32.2259 41.4046 32.236 40.4713 32.2985 39.6186C32.3611 38.7659 32.5324 37.7277 32.8123 36.504C33.1461 35.2275 33.773 33.9809 34.6929 32.7641C35.6667 31.4945 37.1181 30.4435 39.0472 29.611C40.9769 28.7252 43.5692 28.2199 46.8241 28.0951C50.079 27.9703 52.6893 28.2652 54.655 28.9799C56.6213 29.6412 58.1038 30.6439 59.1027 31.9882C60.1015 33.3324 60.7778 34.9131 61.1315 36.7304C61.5391 38.4949 61.785 40.4177 61.8691 42.4987C61.9991 45.2736 61.6523 47.75 60.8287 49.9279C60.059 52.053 59.0263 53.8286 57.7308 55.2547C56.4359 56.6274 55.092 57.5996 53.699 58.1712C53.699 58.1712 53.6431 58.4106 53.5313 58.8895C53.4727 59.3689 53.2534 59.9265 52.8731 60.5624C52.4935 61.145 51.8214 61.6445 50.8568 62.0607C49.9456 62.4775 48.637 62.6501 46.931 62.5783ZM46.1816 65.2903C46.1816 65.2903 46.5016 65.2938 47.1415 65.3007C47.8348 65.3082 48.6336 65.4235 49.5379 65.6466C50.4961 65.817 51.372 66.1999 52.1656 66.7951C52.9592 67.3904 53.4827 68.3028 53.7361 69.5323C53.9901 70.7084 53.82 71.64 53.2258 72.3269C52.6856 72.9611 51.9874 73.4069 51.1312 73.6644C50.2751 73.9218 49.5001 74.0734 48.8062 74.1192C48.1123 74.165 47.7654 74.188 47.7654 74.188C47.7654 74.188 47.4187 74.1842 46.7254 74.1767C46.0327 74.1159 45.2073 74.0003 44.2491 73.8299C43.3447 73.6068 42.5219 73.2512 41.7805 72.7631C41.0396 72.2217 40.6213 71.4438 40.5256 70.4294C40.3342 68.4005 40.7756 67.0452 41.8497 66.3635C42.9771 65.6823 44.4211 65.3246 46.1816 65.2903Z" fill="#35273A"/>
</g>
<defs>
<filter id="filter0_d_191_1624" x="3.22998" y="4.5498" width="91.36" height="91.3599" filterUnits="userSpaceOnUse" color-interpolation-filters="sRGB">
<feFlood flood-opacity="0" result="BackgroundImageFix"/>
<feColorMatrix in="SourceAlpha" type="matrix" values="0 0 0 0 0 0 0 0 0 0 0 0 0 0 0 0 0 0 127 0" result="hardAlpha"/>
<feOffset dx="3" dy="3"/>
<feGaussianBlur stdDeviation="3"/>
<feColorMatrix type="matrix" values="0 0 0 0 0.207843 0 0 0 0 0.207843 0 0 0 0 0.207843 0 0 0 0.2 0"/>
<feBlend mode="normal" in2="BackgroundImageFix" result="effect1_dropShadow_191_1624"/>
<feBlend mode="normal" in="SourceGraphic" in2="effect1_dropShadow_191_1624" result="shape"/>
</filter>
<filter id="filter1_d_191_1624" x="3.22998" y="4.5498" width="91.36" height="91.3599" filterUnits="userSpaceOnUse" color-interpolation-filters="sRGB">
<feFlood flood-opacity="0" result="BackgroundImageFix"/>
<feColorMatrix in="SourceAlpha" type="matrix" values="0 0 0 0 0 0 0 0 0 0 0 0 0 0 0 0 0 0 127 0" result="hardAlpha"/>
<feOffset dx="3" dy="3"/>
<feGaussianBlur stdDeviation="3"/>
<feColorMatrix type="matrix" values="0 0 0 0 0 0 0 0 0 0 0 0 0 0 0 0 0 0 0.35 0"/>
<feBlend mode="normal" in2="BackgroundImageFix" result="effect1_dropShadow_191_1624"/>
<feBlend mode="normal" in="SourceGraphic" in2="effect1_dropShadow_191_1624" result="shape"/>
</filter>
</defs>
</svg>
