<svg width="97" height="94" viewBox="0 0 97 94" fill="none" xmlns="http://www.w3.org/2000/svg">
<g clip-path="url(#clip0_191_1629)">
<g filter="url(#filter0_d_191_1629)">
<path opacity="0.5" d="M42.07 84.14C65.3046 84.14 84.14 65.3046 84.14 42.07C84.14 18.8354 65.3046 0 42.07 0C18.8354 0 0 18.8354 0 42.07C0 65.3046 18.8354 84.14 42.07 84.14Z" fill="#6C5690"/>
<g filter="url(#filter1_d_191_1629)">
<path d="M59.89 58.6101L45.36 51.9601C44.87 51.7401 44.29 51.8501 43.92 52.2501L33.11 64.0102C31.81 65.4301 29.45 64.3501 29.67 62.4401L31.5 46.5701C31.56 46.0301 31.27 45.5201 30.78 45.2901L16.25 38.6401C14.5 37.8401 14.8 35.2601 16.68 34.8801L32.34 31.7201C32.87 31.6101 33.27 31.1801 33.33 30.6401L35.16 14.7701C35.38 12.8601 37.92 12.3401 38.87 14.0201L46.71 27.9401C46.98 28.4101 47.51 28.6601 48.04 28.5501L63.7 25.3901C65.59 25.0101 66.86 27.2701 65.56 28.6901L54.75 40.4501C54.38 40.8501 54.32 41.4302 54.58 41.9002L62.42 55.8201C63.37 57.5001 61.61 59.4101 59.86 58.6101H59.89Z" fill="#FFCE81"/>
</g>
</g>
</g>
<defs>
<filter id="filter0_d_191_1629" x="-3" y="-3" width="96.14" height="96.1401" filterUnits="userSpaceOnUse" color-interpolation-filters="sRGB">
<feFlood flood-opacity="0" result="BackgroundImageFix"/>
<feColorMatrix in="SourceAlpha" type="matrix" values="0 0 0 0 0 0 0 0 0 0 0 0 0 0 0 0 0 0 127 0" result="hardAlpha"/>
<feOffset dx="3" dy="3"/>
<feGaussianBlur stdDeviation="3"/>
<feColorMatrix type="matrix" values="0 0 0 0 0 0 0 0 0 0 0 0 0 0 0 0 0 0 0.35 0"/>
<feBlend mode="normal" in2="BackgroundImageFix" result="effect1_dropShadow_191_1629"/>
<feBlend mode="normal" in="SourceGraphic" in2="effect1_dropShadow_191_1629" result="shape"/>
</filter>
<filter id="filter1_d_191_1629" x="12.0901" y="10.0073" width="63.0004" height="63.6528" filterUnits="userSpaceOnUse" color-interpolation-filters="sRGB">
<feFlood flood-opacity="0" result="BackgroundImageFix"/>
<feColorMatrix in="SourceAlpha" type="matrix" values="0 0 0 0 0 0 0 0 0 0 0 0 0 0 0 0 0 0 127 0" result="hardAlpha"/>
<feOffset dx="3" dy="3"/>
<feGaussianBlur stdDeviation="3"/>
<feColorMatrix type="matrix" values="0 0 0 0 0 0 0 0 0 0 0 0 0 0 0 0 0 0 0.3 0"/>
<feBlend mode="normal" in2="BackgroundImageFix" result="effect1_dropShadow_191_1629"/>
<feBlend mode="normal" in="SourceGraphic" in2="effect1_dropShadow_191_1629" result="shape"/>
</filter>
<clipPath id="clip0_191_1629">
<rect width="97" height="94" fill="white"/>
</clipPath>
</defs>
</svg>
